<mxfile host="app.diagrams.net" agent="Mozilla/5.0 (Macintosh; Intel Mac OS X 10_15_7) AppleWebKit/537.36 (KHTML, like Gecko) Chrome/138.0.0.0 Safari/537.36" version="27.2.0">
  <diagram name="Page-1" id="gBR63zzCEHvzBJGvGzfn">
    <mxGraphModel dx="2681" dy="1053" grid="1" gridSize="10" guides="1" tooltips="1" connect="1" arrows="1" fold="1" page="1" pageScale="1" pageWidth="1100" pageHeight="850" math="0" shadow="0">
      <root>
        <mxCell id="0" />
        <mxCell id="1" parent="0" />
        <mxCell id="fZ5YP8oLHRnBdbnNuh6P-92" value="" style="rounded=0;whiteSpace=wrap;html=1;" vertex="1" parent="1">
          <mxGeometry x="-10" y="40" width="1370" height="750" as="geometry" />
        </mxCell>
        <mxCell id="fZ5YP8oLHRnBdbnNuh6P-1" value="Photo" style="shape=table;startSize=30;container=1;collapsible=1;childLayout=tableLayout;fixedRows=1;rowLines=0;fontStyle=1;align=center;resizeLast=1;html=1;" vertex="1" parent="1">
          <mxGeometry x="240" y="225" width="180" height="180" as="geometry" />
        </mxCell>
        <mxCell id="fZ5YP8oLHRnBdbnNuh6P-2" value="" style="shape=tableRow;horizontal=0;startSize=0;swimlaneHead=0;swimlaneBody=0;fillColor=none;collapsible=0;dropTarget=0;points=[[0,0.5],[1,0.5]];portConstraint=eastwest;top=0;left=0;right=0;bottom=1;" vertex="1" parent="fZ5YP8oLHRnBdbnNuh6P-1">
          <mxGeometry y="30" width="180" height="30" as="geometry" />
        </mxCell>
        <mxCell id="fZ5YP8oLHRnBdbnNuh6P-3" value="PK" style="shape=partialRectangle;connectable=0;fillColor=none;top=0;left=0;bottom=0;right=0;fontStyle=1;overflow=hidden;whiteSpace=wrap;html=1;" vertex="1" parent="fZ5YP8oLHRnBdbnNuh6P-2">
          <mxGeometry width="30" height="30" as="geometry">
            <mxRectangle width="30" height="30" as="alternateBounds" />
          </mxGeometry>
        </mxCell>
        <mxCell id="fZ5YP8oLHRnBdbnNuh6P-4" value="photoId : int" style="shape=partialRectangle;connectable=0;fillColor=none;top=0;left=0;bottom=0;right=0;align=left;spacingLeft=6;fontStyle=5;overflow=hidden;whiteSpace=wrap;html=1;" vertex="1" parent="fZ5YP8oLHRnBdbnNuh6P-2">
          <mxGeometry x="30" width="150" height="30" as="geometry">
            <mxRectangle width="150" height="30" as="alternateBounds" />
          </mxGeometry>
        </mxCell>
        <mxCell id="fZ5YP8oLHRnBdbnNuh6P-8" value="" style="shape=tableRow;horizontal=0;startSize=0;swimlaneHead=0;swimlaneBody=0;fillColor=none;collapsible=0;dropTarget=0;points=[[0,0.5],[1,0.5]];portConstraint=eastwest;top=0;left=0;right=0;bottom=0;" vertex="1" parent="fZ5YP8oLHRnBdbnNuh6P-1">
          <mxGeometry y="60" width="180" height="30" as="geometry" />
        </mxCell>
        <mxCell id="fZ5YP8oLHRnBdbnNuh6P-9" value="FK" style="shape=partialRectangle;connectable=0;fillColor=none;top=0;left=0;bottom=0;right=0;editable=1;overflow=hidden;whiteSpace=wrap;html=1;" vertex="1" parent="fZ5YP8oLHRnBdbnNuh6P-8">
          <mxGeometry width="30" height="30" as="geometry">
            <mxRectangle width="30" height="30" as="alternateBounds" />
          </mxGeometry>
        </mxCell>
        <mxCell id="fZ5YP8oLHRnBdbnNuh6P-10" value="userId : int" style="shape=partialRectangle;connectable=0;fillColor=none;top=0;left=0;bottom=0;right=0;align=left;spacingLeft=6;overflow=hidden;whiteSpace=wrap;html=1;" vertex="1" parent="fZ5YP8oLHRnBdbnNuh6P-8">
          <mxGeometry x="30" width="150" height="30" as="geometry">
            <mxRectangle width="150" height="30" as="alternateBounds" />
          </mxGeometry>
        </mxCell>
        <mxCell id="fZ5YP8oLHRnBdbnNuh6P-11" value="" style="shape=tableRow;horizontal=0;startSize=0;swimlaneHead=0;swimlaneBody=0;fillColor=none;collapsible=0;dropTarget=0;points=[[0,0.5],[1,0.5]];portConstraint=eastwest;top=0;left=0;right=0;bottom=0;" vertex="1" parent="fZ5YP8oLHRnBdbnNuh6P-1">
          <mxGeometry y="90" width="180" height="30" as="geometry" />
        </mxCell>
        <mxCell id="fZ5YP8oLHRnBdbnNuh6P-12" value="" style="shape=partialRectangle;connectable=0;fillColor=none;top=0;left=0;bottom=0;right=0;editable=1;overflow=hidden;whiteSpace=wrap;html=1;" vertex="1" parent="fZ5YP8oLHRnBdbnNuh6P-11">
          <mxGeometry width="30" height="30" as="geometry">
            <mxRectangle width="30" height="30" as="alternateBounds" />
          </mxGeometry>
        </mxCell>
        <mxCell id="fZ5YP8oLHRnBdbnNuh6P-13" value="imageURL : varchar(256)" style="shape=partialRectangle;connectable=0;fillColor=none;top=0;left=0;bottom=0;right=0;align=left;spacingLeft=6;overflow=hidden;whiteSpace=wrap;html=1;" vertex="1" parent="fZ5YP8oLHRnBdbnNuh6P-11">
          <mxGeometry x="30" width="150" height="30" as="geometry">
            <mxRectangle width="150" height="30" as="alternateBounds" />
          </mxGeometry>
        </mxCell>
        <mxCell id="fZ5YP8oLHRnBdbnNuh6P-14" value="" style="shape=tableRow;horizontal=0;startSize=0;swimlaneHead=0;swimlaneBody=0;fillColor=none;collapsible=0;dropTarget=0;points=[[0,0.5],[1,0.5]];portConstraint=eastwest;top=0;left=0;right=0;bottom=0;" vertex="1" parent="fZ5YP8oLHRnBdbnNuh6P-1">
          <mxGeometry y="120" width="180" height="30" as="geometry" />
        </mxCell>
        <mxCell id="fZ5YP8oLHRnBdbnNuh6P-15" value="" style="shape=partialRectangle;connectable=0;fillColor=none;top=0;left=0;bottom=0;right=0;editable=1;overflow=hidden;whiteSpace=wrap;html=1;" vertex="1" parent="fZ5YP8oLHRnBdbnNuh6P-14">
          <mxGeometry width="30" height="30" as="geometry">
            <mxRectangle width="30" height="30" as="alternateBounds" />
          </mxGeometry>
        </mxCell>
        <mxCell id="fZ5YP8oLHRnBdbnNuh6P-16" value="caption : varchar(256)" style="shape=partialRectangle;connectable=0;fillColor=none;top=0;left=0;bottom=0;right=0;align=left;spacingLeft=6;overflow=hidden;whiteSpace=wrap;html=1;" vertex="1" parent="fZ5YP8oLHRnBdbnNuh6P-14">
          <mxGeometry x="30" width="150" height="30" as="geometry">
            <mxRectangle width="150" height="30" as="alternateBounds" />
          </mxGeometry>
        </mxCell>
        <mxCell id="fZ5YP8oLHRnBdbnNuh6P-17" value="" style="shape=tableRow;horizontal=0;startSize=0;swimlaneHead=0;swimlaneBody=0;fillColor=none;collapsible=0;dropTarget=0;points=[[0,0.5],[1,0.5]];portConstraint=eastwest;top=0;left=0;right=0;bottom=0;" vertex="1" parent="fZ5YP8oLHRnBdbnNuh6P-1">
          <mxGeometry y="150" width="180" height="30" as="geometry" />
        </mxCell>
        <mxCell id="fZ5YP8oLHRnBdbnNuh6P-18" value="" style="shape=partialRectangle;connectable=0;fillColor=none;top=0;left=0;bottom=0;right=0;editable=1;overflow=hidden;whiteSpace=wrap;html=1;" vertex="1" parent="fZ5YP8oLHRnBdbnNuh6P-17">
          <mxGeometry width="30" height="30" as="geometry">
            <mxRectangle width="30" height="30" as="alternateBounds" />
          </mxGeometry>
        </mxCell>
        <mxCell id="fZ5YP8oLHRnBdbnNuh6P-19" value="createdAt : datetime" style="shape=partialRectangle;connectable=0;fillColor=none;top=0;left=0;bottom=0;right=0;align=left;spacingLeft=6;overflow=hidden;whiteSpace=wrap;html=1;" vertex="1" parent="fZ5YP8oLHRnBdbnNuh6P-17">
          <mxGeometry x="30" width="150" height="30" as="geometry">
            <mxRectangle width="150" height="30" as="alternateBounds" />
          </mxGeometry>
        </mxCell>
        <mxCell id="fZ5YP8oLHRnBdbnNuh6P-20" value="User" style="shape=table;startSize=30;container=1;collapsible=1;childLayout=tableLayout;fixedRows=1;rowLines=0;fontStyle=1;align=center;resizeLast=1;html=1;" vertex="1" parent="1">
          <mxGeometry x="470" y="210" width="230" height="210" as="geometry" />
        </mxCell>
        <mxCell id="fZ5YP8oLHRnBdbnNuh6P-21" value="" style="shape=tableRow;horizontal=0;startSize=0;swimlaneHead=0;swimlaneBody=0;fillColor=none;collapsible=0;dropTarget=0;points=[[0,0.5],[1,0.5]];portConstraint=eastwest;top=0;left=0;right=0;bottom=1;" vertex="1" parent="fZ5YP8oLHRnBdbnNuh6P-20">
          <mxGeometry y="30" width="230" height="30" as="geometry" />
        </mxCell>
        <mxCell id="fZ5YP8oLHRnBdbnNuh6P-22" value="PK" style="shape=partialRectangle;connectable=0;fillColor=none;top=0;left=0;bottom=0;right=0;fontStyle=1;overflow=hidden;whiteSpace=wrap;html=1;" vertex="1" parent="fZ5YP8oLHRnBdbnNuh6P-21">
          <mxGeometry width="30" height="30" as="geometry">
            <mxRectangle width="30" height="30" as="alternateBounds" />
          </mxGeometry>
        </mxCell>
        <mxCell id="fZ5YP8oLHRnBdbnNuh6P-23" value="userId : int" style="shape=partialRectangle;connectable=0;fillColor=none;top=0;left=0;bottom=0;right=0;align=left;spacingLeft=6;fontStyle=5;overflow=hidden;whiteSpace=wrap;html=1;" vertex="1" parent="fZ5YP8oLHRnBdbnNuh6P-21">
          <mxGeometry x="30" width="200" height="30" as="geometry">
            <mxRectangle width="200" height="30" as="alternateBounds" />
          </mxGeometry>
        </mxCell>
        <mxCell id="fZ5YP8oLHRnBdbnNuh6P-24" value="" style="shape=tableRow;horizontal=0;startSize=0;swimlaneHead=0;swimlaneBody=0;fillColor=none;collapsible=0;dropTarget=0;points=[[0,0.5],[1,0.5]];portConstraint=eastwest;top=0;left=0;right=0;bottom=0;" vertex="1" parent="fZ5YP8oLHRnBdbnNuh6P-20">
          <mxGeometry y="60" width="230" height="30" as="geometry" />
        </mxCell>
        <mxCell id="fZ5YP8oLHRnBdbnNuh6P-25" value="" style="shape=partialRectangle;connectable=0;fillColor=none;top=0;left=0;bottom=0;right=0;editable=1;overflow=hidden;whiteSpace=wrap;html=1;" vertex="1" parent="fZ5YP8oLHRnBdbnNuh6P-24">
          <mxGeometry width="30" height="30" as="geometry">
            <mxRectangle width="30" height="30" as="alternateBounds" />
          </mxGeometry>
        </mxCell>
        <mxCell id="fZ5YP8oLHRnBdbnNuh6P-26" value="userName : varchar(20)" style="shape=partialRectangle;connectable=0;fillColor=none;top=0;left=0;bottom=0;right=0;align=left;spacingLeft=6;overflow=hidden;whiteSpace=wrap;html=1;" vertex="1" parent="fZ5YP8oLHRnBdbnNuh6P-24">
          <mxGeometry x="30" width="200" height="30" as="geometry">
            <mxRectangle width="200" height="30" as="alternateBounds" />
          </mxGeometry>
        </mxCell>
        <mxCell id="fZ5YP8oLHRnBdbnNuh6P-27" value="" style="shape=tableRow;horizontal=0;startSize=0;swimlaneHead=0;swimlaneBody=0;fillColor=none;collapsible=0;dropTarget=0;points=[[0,0.5],[1,0.5]];portConstraint=eastwest;top=0;left=0;right=0;bottom=0;" vertex="1" parent="fZ5YP8oLHRnBdbnNuh6P-20">
          <mxGeometry y="90" width="230" height="30" as="geometry" />
        </mxCell>
        <mxCell id="fZ5YP8oLHRnBdbnNuh6P-28" value="" style="shape=partialRectangle;connectable=0;fillColor=none;top=0;left=0;bottom=0;right=0;editable=1;overflow=hidden;whiteSpace=wrap;html=1;" vertex="1" parent="fZ5YP8oLHRnBdbnNuh6P-27">
          <mxGeometry width="30" height="30" as="geometry">
            <mxRectangle width="30" height="30" as="alternateBounds" />
          </mxGeometry>
        </mxCell>
        <mxCell id="fZ5YP8oLHRnBdbnNuh6P-29" value="passwordHash : varchar(256)" style="shape=partialRectangle;connectable=0;fillColor=none;top=0;left=0;bottom=0;right=0;align=left;spacingLeft=6;overflow=hidden;whiteSpace=wrap;html=1;" vertex="1" parent="fZ5YP8oLHRnBdbnNuh6P-27">
          <mxGeometry x="30" width="200" height="30" as="geometry">
            <mxRectangle width="200" height="30" as="alternateBounds" />
          </mxGeometry>
        </mxCell>
        <mxCell id="fZ5YP8oLHRnBdbnNuh6P-30" value="" style="shape=tableRow;horizontal=0;startSize=0;swimlaneHead=0;swimlaneBody=0;fillColor=none;collapsible=0;dropTarget=0;points=[[0,0.5],[1,0.5]];portConstraint=eastwest;top=0;left=0;right=0;bottom=0;" vertex="1" parent="fZ5YP8oLHRnBdbnNuh6P-20">
          <mxGeometry y="120" width="230" height="30" as="geometry" />
        </mxCell>
        <mxCell id="fZ5YP8oLHRnBdbnNuh6P-31" value="" style="shape=partialRectangle;connectable=0;fillColor=none;top=0;left=0;bottom=0;right=0;editable=1;overflow=hidden;whiteSpace=wrap;html=1;" vertex="1" parent="fZ5YP8oLHRnBdbnNuh6P-30">
          <mxGeometry width="30" height="30" as="geometry">
            <mxRectangle width="30" height="30" as="alternateBounds" />
          </mxGeometry>
        </mxCell>
        <mxCell id="fZ5YP8oLHRnBdbnNuh6P-32" value="bio : varchar(256)" style="shape=partialRectangle;connectable=0;fillColor=none;top=0;left=0;bottom=0;right=0;align=left;spacingLeft=6;overflow=hidden;whiteSpace=wrap;html=1;" vertex="1" parent="fZ5YP8oLHRnBdbnNuh6P-30">
          <mxGeometry x="30" width="200" height="30" as="geometry">
            <mxRectangle width="200" height="30" as="alternateBounds" />
          </mxGeometry>
        </mxCell>
        <mxCell id="fZ5YP8oLHRnBdbnNuh6P-33" value="" style="shape=tableRow;horizontal=0;startSize=0;swimlaneHead=0;swimlaneBody=0;fillColor=none;collapsible=0;dropTarget=0;points=[[0,0.5],[1,0.5]];portConstraint=eastwest;top=0;left=0;right=0;bottom=0;" vertex="1" parent="fZ5YP8oLHRnBdbnNuh6P-20">
          <mxGeometry y="150" width="230" height="30" as="geometry" />
        </mxCell>
        <mxCell id="fZ5YP8oLHRnBdbnNuh6P-34" value="" style="shape=partialRectangle;connectable=0;fillColor=none;top=0;left=0;bottom=0;right=0;editable=1;overflow=hidden;whiteSpace=wrap;html=1;" vertex="1" parent="fZ5YP8oLHRnBdbnNuh6P-33">
          <mxGeometry width="30" height="30" as="geometry">
            <mxRectangle width="30" height="30" as="alternateBounds" />
          </mxGeometry>
        </mxCell>
        <mxCell id="fZ5YP8oLHRnBdbnNuh6P-35" value="profilePictureURL : varchar(256)" style="shape=partialRectangle;connectable=0;fillColor=none;top=0;left=0;bottom=0;right=0;align=left;spacingLeft=6;overflow=hidden;whiteSpace=wrap;html=1;" vertex="1" parent="fZ5YP8oLHRnBdbnNuh6P-33">
          <mxGeometry x="30" width="200" height="30" as="geometry">
            <mxRectangle width="200" height="30" as="alternateBounds" />
          </mxGeometry>
        </mxCell>
        <mxCell id="fZ5YP8oLHRnBdbnNuh6P-36" value="" style="shape=tableRow;horizontal=0;startSize=0;swimlaneHead=0;swimlaneBody=0;fillColor=none;collapsible=0;dropTarget=0;points=[[0,0.5],[1,0.5]];portConstraint=eastwest;top=0;left=0;right=0;bottom=0;" vertex="1" parent="fZ5YP8oLHRnBdbnNuh6P-20">
          <mxGeometry y="180" width="230" height="30" as="geometry" />
        </mxCell>
        <mxCell id="fZ5YP8oLHRnBdbnNuh6P-37" value="" style="shape=partialRectangle;connectable=0;fillColor=none;top=0;left=0;bottom=0;right=0;editable=1;overflow=hidden;whiteSpace=wrap;html=1;" vertex="1" parent="fZ5YP8oLHRnBdbnNuh6P-36">
          <mxGeometry width="30" height="30" as="geometry">
            <mxRectangle width="30" height="30" as="alternateBounds" />
          </mxGeometry>
        </mxCell>
        <mxCell id="fZ5YP8oLHRnBdbnNuh6P-38" value="createdAt : timestamp" style="shape=partialRectangle;connectable=0;fillColor=none;top=0;left=0;bottom=0;right=0;align=left;spacingLeft=6;overflow=hidden;whiteSpace=wrap;html=1;" vertex="1" parent="fZ5YP8oLHRnBdbnNuh6P-36">
          <mxGeometry x="30" width="200" height="30" as="geometry">
            <mxRectangle width="200" height="30" as="alternateBounds" />
          </mxGeometry>
        </mxCell>
        <mxCell id="fZ5YP8oLHRnBdbnNuh6P-40" value="Followers" style="shape=table;startSize=30;container=1;collapsible=1;childLayout=tableLayout;fixedRows=1;rowLines=0;fontStyle=1;align=center;resizeLast=1;html=1;" vertex="1" parent="1">
          <mxGeometry x="760" y="240" width="180" height="110" as="geometry" />
        </mxCell>
        <mxCell id="fZ5YP8oLHRnBdbnNuh6P-41" value="" style="shape=tableRow;horizontal=0;startSize=0;swimlaneHead=0;swimlaneBody=0;fillColor=none;collapsible=0;dropTarget=0;points=[[0,0.5],[1,0.5]];portConstraint=eastwest;top=0;left=0;right=0;bottom=1;" vertex="1" parent="fZ5YP8oLHRnBdbnNuh6P-40">
          <mxGeometry y="30" width="180" height="30" as="geometry" />
        </mxCell>
        <mxCell id="fZ5YP8oLHRnBdbnNuh6P-42" value="PK" style="shape=partialRectangle;connectable=0;fillColor=none;top=0;left=0;bottom=0;right=0;fontStyle=1;overflow=hidden;whiteSpace=wrap;html=1;" vertex="1" parent="fZ5YP8oLHRnBdbnNuh6P-41">
          <mxGeometry width="30" height="30" as="geometry">
            <mxRectangle width="30" height="30" as="alternateBounds" />
          </mxGeometry>
        </mxCell>
        <mxCell id="fZ5YP8oLHRnBdbnNuh6P-43" value="userId : int" style="shape=partialRectangle;connectable=0;fillColor=none;top=0;left=0;bottom=0;right=0;align=left;spacingLeft=6;fontStyle=5;overflow=hidden;whiteSpace=wrap;html=1;" vertex="1" parent="fZ5YP8oLHRnBdbnNuh6P-41">
          <mxGeometry x="30" width="150" height="30" as="geometry">
            <mxRectangle width="150" height="30" as="alternateBounds" />
          </mxGeometry>
        </mxCell>
        <mxCell id="fZ5YP8oLHRnBdbnNuh6P-44" value="" style="shape=tableRow;horizontal=0;startSize=0;swimlaneHead=0;swimlaneBody=0;fillColor=none;collapsible=0;dropTarget=0;points=[[0,0.5],[1,0.5]];portConstraint=eastwest;top=0;left=0;right=0;bottom=0;" vertex="1" parent="fZ5YP8oLHRnBdbnNuh6P-40">
          <mxGeometry y="60" width="180" height="20" as="geometry" />
        </mxCell>
        <mxCell id="fZ5YP8oLHRnBdbnNuh6P-45" value="PK" style="shape=partialRectangle;connectable=0;fillColor=none;top=0;left=0;bottom=0;right=0;editable=1;overflow=hidden;whiteSpace=wrap;html=1;" vertex="1" parent="fZ5YP8oLHRnBdbnNuh6P-44">
          <mxGeometry width="30" height="20" as="geometry">
            <mxRectangle width="30" height="20" as="alternateBounds" />
          </mxGeometry>
        </mxCell>
        <mxCell id="fZ5YP8oLHRnBdbnNuh6P-46" value="followerId : int" style="shape=partialRectangle;connectable=0;fillColor=none;top=0;left=0;bottom=0;right=0;align=left;spacingLeft=6;overflow=hidden;whiteSpace=wrap;html=1;" vertex="1" parent="fZ5YP8oLHRnBdbnNuh6P-44">
          <mxGeometry x="30" width="150" height="20" as="geometry">
            <mxRectangle width="150" height="20" as="alternateBounds" />
          </mxGeometry>
        </mxCell>
        <mxCell id="fZ5YP8oLHRnBdbnNuh6P-47" value="" style="shape=tableRow;horizontal=0;startSize=0;swimlaneHead=0;swimlaneBody=0;fillColor=none;collapsible=0;dropTarget=0;points=[[0,0.5],[1,0.5]];portConstraint=eastwest;top=0;left=0;right=0;bottom=0;" vertex="1" parent="fZ5YP8oLHRnBdbnNuh6P-40">
          <mxGeometry y="80" width="180" height="30" as="geometry" />
        </mxCell>
        <mxCell id="fZ5YP8oLHRnBdbnNuh6P-48" value="" style="shape=partialRectangle;connectable=0;fillColor=none;top=0;left=0;bottom=0;right=0;editable=1;overflow=hidden;whiteSpace=wrap;html=1;" vertex="1" parent="fZ5YP8oLHRnBdbnNuh6P-47">
          <mxGeometry width="30" height="30" as="geometry">
            <mxRectangle width="30" height="30" as="alternateBounds" />
          </mxGeometry>
        </mxCell>
        <mxCell id="fZ5YP8oLHRnBdbnNuh6P-49" value="createdAt : datetime" style="shape=partialRectangle;connectable=0;fillColor=none;top=0;left=0;bottom=0;right=0;align=left;spacingLeft=6;overflow=hidden;whiteSpace=wrap;html=1;" vertex="1" parent="fZ5YP8oLHRnBdbnNuh6P-47">
          <mxGeometry x="30" width="150" height="30" as="geometry">
            <mxRectangle width="150" height="30" as="alternateBounds" />
          </mxGeometry>
        </mxCell>
        <mxCell id="fZ5YP8oLHRnBdbnNuh6P-60" style="edgeStyle=orthogonalEdgeStyle;rounded=0;orthogonalLoop=1;jettySize=auto;html=1;entryX=0;entryY=0.5;entryDx=0;entryDy=0;" edge="1" parent="1" source="fZ5YP8oLHRnBdbnNuh6P-8" target="fZ5YP8oLHRnBdbnNuh6P-21">
          <mxGeometry relative="1" as="geometry" />
        </mxCell>
        <mxCell id="fZ5YP8oLHRnBdbnNuh6P-61" style="edgeStyle=orthogonalEdgeStyle;rounded=0;orthogonalLoop=1;jettySize=auto;html=1;entryX=1;entryY=0.5;entryDx=0;entryDy=0;" edge="1" parent="1" source="fZ5YP8oLHRnBdbnNuh6P-41" target="fZ5YP8oLHRnBdbnNuh6P-21">
          <mxGeometry relative="1" as="geometry" />
        </mxCell>
        <mxCell id="fZ5YP8oLHRnBdbnNuh6P-63" style="edgeStyle=orthogonalEdgeStyle;rounded=0;orthogonalLoop=1;jettySize=auto;html=1;entryX=1;entryY=0.5;entryDx=0;entryDy=0;" edge="1" parent="1" source="fZ5YP8oLHRnBdbnNuh6P-44" target="fZ5YP8oLHRnBdbnNuh6P-21">
          <mxGeometry relative="1" as="geometry" />
        </mxCell>
        <mxCell id="fZ5YP8oLHRnBdbnNuh6P-64" value="SQL - RDBMS" style="rounded=0;whiteSpace=wrap;html=1;fillColor=#f8cecc;strokeColor=#b85450;" vertex="1" parent="1">
          <mxGeometry x="260" y="150" width="140" height="30" as="geometry" />
        </mxCell>
        <mxCell id="fZ5YP8oLHRnBdbnNuh6P-65" value="No SQL - Cassandra" style="rounded=0;whiteSpace=wrap;html=1;fillColor=#f8cecc;strokeColor=#b85450;" vertex="1" parent="1">
          <mxGeometry x="230" y="450" width="140" height="30" as="geometry" />
        </mxCell>
        <mxCell id="fZ5YP8oLHRnBdbnNuh6P-66" value="CREATE TABLE &lt;b&gt;users&lt;/b&gt; (&lt;br&gt;&amp;nbsp; &amp;nbsp; user_id UUID PRIMARY KEY,&lt;br&gt;&amp;nbsp; &amp;nbsp; username TEXT,&lt;br&gt;&amp;nbsp; &amp;nbsp; email TEXT,&lt;br&gt;&amp;nbsp; &amp;nbsp; bio TEXT,&lt;br&gt;&amp;nbsp; &amp;nbsp; profile_picture_url TEXT,&lt;br&gt;&amp;nbsp; &amp;nbsp; created_at TIMESTAMP&lt;br&gt;);" style="rounded=0;whiteSpace=wrap;html=1;align=left;" vertex="1" parent="1">
          <mxGeometry x="350" y="490" width="200" height="130" as="geometry" />
        </mxCell>
        <mxCell id="fZ5YP8oLHRnBdbnNuh6P-67" value="&lt;div&gt;CREATE TABLE &lt;b&gt;photos&lt;/b&gt; (&lt;/div&gt;&lt;div&gt;&amp;nbsp; &amp;nbsp; user_id UUID,&lt;/div&gt;&lt;div&gt;&amp;nbsp; &amp;nbsp; photo_id TIMEUUID,&lt;/div&gt;&lt;div&gt;&amp;nbsp; &amp;nbsp; image_url TEXT,&lt;/div&gt;&lt;div&gt;&amp;nbsp; &amp;nbsp; caption TEXT,&lt;/div&gt;&lt;div&gt;&amp;nbsp; &amp;nbsp; created_at TIMESTAMP,&lt;/div&gt;&lt;div&gt;&amp;nbsp; &amp;nbsp; PRIMARY KEY (user_id, created_at)&lt;/div&gt;&lt;div&gt;) WITH CLUSTERING ORDER BY (created_at DESC);&lt;/div&gt;" style="rounded=0;whiteSpace=wrap;html=1;align=left;" vertex="1" parent="1">
          <mxGeometry x="10" y="490" width="320" height="130" as="geometry" />
        </mxCell>
        <mxCell id="fZ5YP8oLHRnBdbnNuh6P-68" value="All photos by the same user are stored &lt;strong data-end=&quot;1169&quot; data-start=&quot;1135&quot;&gt;together in the same partition &lt;/strong&gt;&lt;span data-end=&quot;1169&quot; data-start=&quot;1135&quot;&gt;since user_id is a primary key and&amp;nbsp;&lt;/span&gt;Rows are &lt;strong data-end=&quot;1245&quot; data-start=&quot;1218&quot;&gt;sorted by creation time &lt;/strong&gt;&lt;span data-end=&quot;1245&quot; data-start=&quot;1218&quot;&gt;within the cluster&lt;/span&gt;." style="shape=callout;whiteSpace=wrap;html=1;perimeter=calloutPerimeter;direction=west;" vertex="1" parent="1">
          <mxGeometry x="80" y="630" width="160" height="140" as="geometry" />
        </mxCell>
        <mxCell id="fZ5YP8oLHRnBdbnNuh6P-70" value="&lt;div&gt;CREATE TABLE &lt;b&gt;followers&lt;/b&gt; (&lt;/div&gt;&lt;div&gt;&amp;nbsp; &amp;nbsp; user_id UUID,&lt;/div&gt;&lt;div&gt;&amp;nbsp; &amp;nbsp; follower_id UUID,&lt;/div&gt;&lt;div&gt;&amp;nbsp; &amp;nbsp; followed_at TIMESTAMP,&lt;/div&gt;&lt;div&gt;&amp;nbsp; &amp;nbsp; PRIMARY KEY (user_id, follower_id)&lt;/div&gt;&lt;div&gt;);&lt;/div&gt;" style="rounded=0;whiteSpace=wrap;html=1;align=left;" vertex="1" parent="1">
          <mxGeometry x="560" y="490" width="220" height="120" as="geometry" />
        </mxCell>
        <mxCell id="fZ5YP8oLHRnBdbnNuh6P-71" value="&lt;div&gt;CREATE TABLE &lt;b&gt;followings&lt;/b&gt; (&lt;/div&gt;&lt;div&gt;&amp;nbsp; &amp;nbsp; user_id UUID,&lt;/div&gt;&lt;div&gt;&amp;nbsp; &amp;nbsp; following_id UUID,&lt;/div&gt;&lt;div&gt;&amp;nbsp; &amp;nbsp; followed_at TIMESTAMP,&lt;/div&gt;&lt;div&gt;&amp;nbsp; &amp;nbsp; PRIMARY KEY (user_id,following_id)&lt;/div&gt;&lt;div&gt;);&lt;/div&gt;" style="rounded=0;whiteSpace=wrap;html=1;align=left;" vertex="1" parent="1">
          <mxGeometry x="790" y="490" width="230" height="110" as="geometry" />
        </mxCell>
        <mxCell id="fZ5YP8oLHRnBdbnNuh6P-73" value="Feeds" style="shape=table;startSize=30;container=1;collapsible=1;childLayout=tableLayout;fixedRows=1;rowLines=0;fontStyle=1;align=center;resizeLast=1;html=1;" vertex="1" parent="1">
          <mxGeometry x="760" y="60" width="180" height="150" as="geometry" />
        </mxCell>
        <mxCell id="fZ5YP8oLHRnBdbnNuh6P-74" value="" style="shape=tableRow;horizontal=0;startSize=0;swimlaneHead=0;swimlaneBody=0;fillColor=none;collapsible=0;dropTarget=0;points=[[0,0.5],[1,0.5]];portConstraint=eastwest;top=0;left=0;right=0;bottom=1;" vertex="1" parent="fZ5YP8oLHRnBdbnNuh6P-73">
          <mxGeometry y="30" width="180" height="30" as="geometry" />
        </mxCell>
        <mxCell id="fZ5YP8oLHRnBdbnNuh6P-75" value="PK" style="shape=partialRectangle;connectable=0;fillColor=none;top=0;left=0;bottom=0;right=0;fontStyle=1;overflow=hidden;whiteSpace=wrap;html=1;" vertex="1" parent="fZ5YP8oLHRnBdbnNuh6P-74">
          <mxGeometry width="30" height="30" as="geometry">
            <mxRectangle width="30" height="30" as="alternateBounds" />
          </mxGeometry>
        </mxCell>
        <mxCell id="fZ5YP8oLHRnBdbnNuh6P-76" value="userId : bigint" style="shape=partialRectangle;connectable=0;fillColor=none;top=0;left=0;bottom=0;right=0;align=left;spacingLeft=6;fontStyle=5;overflow=hidden;whiteSpace=wrap;html=1;" vertex="1" parent="fZ5YP8oLHRnBdbnNuh6P-74">
          <mxGeometry x="30" width="150" height="30" as="geometry">
            <mxRectangle width="150" height="30" as="alternateBounds" />
          </mxGeometry>
        </mxCell>
        <mxCell id="fZ5YP8oLHRnBdbnNuh6P-77" value="" style="shape=tableRow;horizontal=0;startSize=0;swimlaneHead=0;swimlaneBody=0;fillColor=none;collapsible=0;dropTarget=0;points=[[0,0.5],[1,0.5]];portConstraint=eastwest;top=0;left=0;right=0;bottom=0;" vertex="1" parent="fZ5YP8oLHRnBdbnNuh6P-73">
          <mxGeometry y="60" width="180" height="30" as="geometry" />
        </mxCell>
        <mxCell id="fZ5YP8oLHRnBdbnNuh6P-78" value="PK" style="shape=partialRectangle;connectable=0;fillColor=none;top=0;left=0;bottom=0;right=0;editable=1;overflow=hidden;whiteSpace=wrap;html=1;" vertex="1" parent="fZ5YP8oLHRnBdbnNuh6P-77">
          <mxGeometry width="30" height="30" as="geometry">
            <mxRectangle width="30" height="30" as="alternateBounds" />
          </mxGeometry>
        </mxCell>
        <mxCell id="fZ5YP8oLHRnBdbnNuh6P-79" value="photoId : bigint" style="shape=partialRectangle;connectable=0;fillColor=none;top=0;left=0;bottom=0;right=0;align=left;spacingLeft=6;overflow=hidden;whiteSpace=wrap;html=1;" vertex="1" parent="fZ5YP8oLHRnBdbnNuh6P-77">
          <mxGeometry x="30" width="150" height="30" as="geometry">
            <mxRectangle width="150" height="30" as="alternateBounds" />
          </mxGeometry>
        </mxCell>
        <mxCell id="fZ5YP8oLHRnBdbnNuh6P-80" value="" style="shape=tableRow;horizontal=0;startSize=0;swimlaneHead=0;swimlaneBody=0;fillColor=none;collapsible=0;dropTarget=0;points=[[0,0.5],[1,0.5]];portConstraint=eastwest;top=0;left=0;right=0;bottom=0;" vertex="1" parent="fZ5YP8oLHRnBdbnNuh6P-73">
          <mxGeometry y="90" width="180" height="30" as="geometry" />
        </mxCell>
        <mxCell id="fZ5YP8oLHRnBdbnNuh6P-81" value="FK" style="shape=partialRectangle;connectable=0;fillColor=none;top=0;left=0;bottom=0;right=0;editable=1;overflow=hidden;whiteSpace=wrap;html=1;" vertex="1" parent="fZ5YP8oLHRnBdbnNuh6P-80">
          <mxGeometry width="30" height="30" as="geometry">
            <mxRectangle width="30" height="30" as="alternateBounds" />
          </mxGeometry>
        </mxCell>
        <mxCell id="fZ5YP8oLHRnBdbnNuh6P-82" value="authorId : bigint" style="shape=partialRectangle;connectable=0;fillColor=none;top=0;left=0;bottom=0;right=0;align=left;spacingLeft=6;overflow=hidden;whiteSpace=wrap;html=1;" vertex="1" parent="fZ5YP8oLHRnBdbnNuh6P-80">
          <mxGeometry x="30" width="150" height="30" as="geometry">
            <mxRectangle width="150" height="30" as="alternateBounds" />
          </mxGeometry>
        </mxCell>
        <mxCell id="fZ5YP8oLHRnBdbnNuh6P-83" value="" style="shape=tableRow;horizontal=0;startSize=0;swimlaneHead=0;swimlaneBody=0;fillColor=none;collapsible=0;dropTarget=0;points=[[0,0.5],[1,0.5]];portConstraint=eastwest;top=0;left=0;right=0;bottom=0;" vertex="1" parent="fZ5YP8oLHRnBdbnNuh6P-73">
          <mxGeometry y="120" width="180" height="30" as="geometry" />
        </mxCell>
        <mxCell id="fZ5YP8oLHRnBdbnNuh6P-84" value="" style="shape=partialRectangle;connectable=0;fillColor=none;top=0;left=0;bottom=0;right=0;editable=1;overflow=hidden;whiteSpace=wrap;html=1;" vertex="1" parent="fZ5YP8oLHRnBdbnNuh6P-83">
          <mxGeometry width="30" height="30" as="geometry">
            <mxRectangle width="30" height="30" as="alternateBounds" />
          </mxGeometry>
        </mxCell>
        <mxCell id="fZ5YP8oLHRnBdbnNuh6P-85" value="createdAt : timestamp" style="shape=partialRectangle;connectable=0;fillColor=none;top=0;left=0;bottom=0;right=0;align=left;spacingLeft=6;overflow=hidden;whiteSpace=wrap;html=1;" vertex="1" parent="fZ5YP8oLHRnBdbnNuh6P-83">
          <mxGeometry x="30" width="150" height="30" as="geometry">
            <mxRectangle width="150" height="30" as="alternateBounds" />
          </mxGeometry>
        </mxCell>
        <mxCell id="fZ5YP8oLHRnBdbnNuh6P-86" style="edgeStyle=orthogonalEdgeStyle;rounded=0;orthogonalLoop=1;jettySize=auto;html=1;entryX=1;entryY=0.5;entryDx=0;entryDy=0;" edge="1" parent="1" source="fZ5YP8oLHRnBdbnNuh6P-74" target="fZ5YP8oLHRnBdbnNuh6P-21">
          <mxGeometry relative="1" as="geometry">
            <mxPoint x="730" y="105" as="targetPoint" />
          </mxGeometry>
        </mxCell>
        <mxCell id="fZ5YP8oLHRnBdbnNuh6P-88" style="edgeStyle=orthogonalEdgeStyle;rounded=0;orthogonalLoop=1;jettySize=auto;html=1;entryX=1;entryY=0.5;entryDx=0;entryDy=0;" edge="1" parent="1" source="fZ5YP8oLHRnBdbnNuh6P-77" target="fZ5YP8oLHRnBdbnNuh6P-2">
          <mxGeometry relative="1" as="geometry">
            <Array as="points">
              <mxPoint x="440" y="135" />
              <mxPoint x="440" y="270" />
            </Array>
          </mxGeometry>
        </mxCell>
        <mxCell id="fZ5YP8oLHRnBdbnNuh6P-90" style="edgeStyle=orthogonalEdgeStyle;rounded=0;orthogonalLoop=1;jettySize=auto;html=1;entryX=1;entryY=0.5;entryDx=0;entryDy=0;" edge="1" parent="1" source="fZ5YP8oLHRnBdbnNuh6P-80" target="fZ5YP8oLHRnBdbnNuh6P-21">
          <mxGeometry relative="1" as="geometry" />
        </mxCell>
        <mxCell id="fZ5YP8oLHRnBdbnNuh6P-91" value="&lt;div&gt;CREATE TABLE &lt;b&gt;feeds&lt;/b&gt; (&lt;/div&gt;&lt;div&gt;&amp;nbsp; &amp;nbsp; user_id UUID,&lt;/div&gt;&lt;div&gt;&amp;nbsp; &amp;nbsp; created_at TIMESTAMP,&lt;/div&gt;&lt;div&gt;&amp;nbsp; &amp;nbsp; photo_id TIMEUUID,&lt;/div&gt;&lt;div&gt;&amp;nbsp; &amp;nbsp; author_id UUID,&lt;/div&gt;&lt;div&gt;&amp;nbsp; &amp;nbsp; image_url TEXT,&lt;/div&gt;&lt;div&gt;&amp;nbsp; &amp;nbsp; caption TEXT,&lt;/div&gt;&lt;div&gt;&amp;nbsp; &amp;nbsp; PRIMARY KEY (user_id, created_at)&lt;/div&gt;&lt;div&gt;) WITH CLUSTERING ORDER BY (created_at DESC);&lt;/div&gt;" style="rounded=0;whiteSpace=wrap;html=1;align=left;" vertex="1" parent="1">
          <mxGeometry x="1030" y="490" width="300" height="160" as="geometry" />
        </mxCell>
        <mxCell id="fZ5YP8oLHRnBdbnNuh6P-93" value="" style="endArrow=none;html=1;rounded=0;" edge="1" parent="1">
          <mxGeometry width="50" height="50" relative="1" as="geometry">
            <mxPoint x="-7" y="430" as="sourcePoint" />
            <mxPoint x="1370" y="430" as="targetPoint" />
          </mxGeometry>
        </mxCell>
      </root>
    </mxGraphModel>
  </diagram>
</mxfile>
